<?xml version="1.0" standalone="no"?>
<!DOCTYPE svg PUBLIC "-//W3C//DTD SVG 20010904//EN"
 "http://www.w3.org/TR/2001/REC-SVG-20010904/DTD/svg10.dtd">
<svg version="1.0" xmlns="http://www.w3.org/2000/svg"
 width="512.000000pt" height="512.000000pt" viewBox="0 0 512.000000 512.000000"
 preserveAspectRatio="xMidYMid meet">

<g transform="translate(0.000000,512.000000) scale(0.100000,-0.100000)"
fill="#000000" stroke="none">
<path d="M0 2560 l0 -2560 2560 0 2560 0 0 2560 0 2560 -2560 0 -2560 0 0
-2560z m1455 2230 c171 -5 456 -12 635 -17 307 -7 317 -8 175 -14 -82 -4 -364
-10 -625 -14 -630 -9 -711 -14 -781 -49 -69 -35 -114 -78 -147 -141 -24 -45
-27 -63 -30 -179 l-4 -129 93 5 c80 4 105 1 168 -19 40 -13 85 -30 100 -37
l26 -14 -47 -21 c-78 -33 -179 -60 -256 -67 l-72 -7 0 -196 c0 -108 3 -206 6
-218 5 -17 14 -23 35 -23 60 0 220 -43 302 -81 l28 -13 -27 -14 c-54 -28 -169
-62 -251 -74 l-83 -12 2 -220 3 -220 80 -12 c84 -12 199 -46 249 -71 l30 -15
-25 -13 c-45 -24 -178 -63 -254 -76 l-75 -12 0 -222 0 -222 61 -6 c94 -10 269
-67 269 -87 0 -19 -174 -75 -292 -95 l-38 -6 0 -220 0 -220 88 2 c76 1 98 -3
176 -31 81 -30 87 -34 70 -47 -29 -21 -195 -72 -266 -80 l-63 -8 -3 -222 -2
-222 37 -5 c77 -12 207 -46 257 -70 l51 -23 -48 -21 c-53 -24 -215 -69 -262
-74 l-30 -3 1 -95 c1 -151 29 -218 118 -277 87 -59 117 -63 453 -63 282 0 303
1 303 18 0 9 -7 82 -15 162 -23 232 -44 635 -55 1050 -13 489 -13 1518 0 1805
19 419 56 970 77 1135 l7 55 8 -65 c56 -467 88 -1271 88 -2199 -1 -617 -23
-1169 -74 -1799 -6 -84 -10 -155 -7 -157 4 -1 551 -4 1216 -6 1302 -4 1242 -6
1327 47 47 30 84 69 111 119 l22 40 6 1180 c4 649 12 1484 18 1856 9 482 9
689 1 723 -23 102 -87 184 -182 232 -71 36 -139 40 -888 54 -338 7 -616 13
-618 15 -1 1 114 5 255 8 142 4 463 12 713 18 416 11 461 10 520 -5 121 -31
216 -110 273 -225 l32 -65 3 -203 c2 -112 6 -203 10 -203 4 0 76 14 160 31
137 28 159 30 195 19 54 -16 112 -75 125 -125 16 -63 24 -308 14 -437 -11
-131 -23 -162 -86 -212 -35 -29 -43 -31 -110 -29 -60 1 -219 34 -278 58 -15 6
-17 -10 -20 -192 -2 -109 -2 -200 -1 -202 2 -2 70 11 152 29 148 33 149 33
194 16 55 -21 102 -71 116 -123 14 -49 14 -506 1 -554 -12 -42 -85 -115 -126
-125 -39 -10 -202 17 -316 52 -17 5 -18 -8 -18 -175 0 -99 4 -182 9 -185 5 -4
69 8 143 24 158 36 196 32 259 -31 56 -56 61 -85 57 -377 -3 -249 -4 -258 -26
-294 -31 -50 -75 -80 -125 -85 -23 -3 -97 4 -164 16 -66 12 -126 21 -132 21
-6 0 -11 -96 -13 -278 l-3 -278 -34 -69 c-39 -78 -119 -165 -193 -208 -98 -57
-74 -56 -1161 -62 -551 -3 -1268 -2 -1593 2 l-591 8 -78 40 c-132 67 -216 167
-251 300 -8 28 -14 98 -14 156 l0 107 -31 6 c-17 3 -41 6 -53 6 -31 0 -207 56
-231 74 -18 13 -18 15 20 31 44 18 88 27 218 46 l87 12 0 222 0 223 -57 6
c-76 9 -165 33 -233 63 l-55 25 37 19 c46 24 187 64 256 74 l52 7 -2 221 -3
221 -77 12 c-42 6 -93 17 -115 24 -84 27 -143 52 -143 59 0 17 90 43 214 61
70 11 130 20 132 20 2 0 4 99 4 219 0 241 3 231 -64 231 -43 0 -173 34 -238
63 l-53 24 30 15 c56 30 190 68 256 74 l66 7 6 150 c4 83 7 181 7 219 l0 68
-29 0 c-75 0 -327 74 -325 96 2 29 223 94 318 94 l33 0 6 152 c4 83 7 182 7
220 l0 68 -37 0 c-75 1 -277 54 -318 84 -18 13 -17 14 11 29 70 36 241 77 320
77 l32 0 4 128 c4 120 5 130 36 190 62 119 153 195 262 218 69 15 182 16 575
4z m1694 -1095 c111 -26 188 -70 272 -154 122 -122 168 -245 156 -419 -8 -126
-38 -203 -113 -298 l-33 -41 54 -38 c73 -50 174 -151 230 -229 95 -133 145
-286 145 -441 0 -68 -4 -96 -14 -104 -11 -9 -59 -10 -203 -2 -388 22 -563 35
-556 41 8 7 219 23 443 35 58 3 132 8 166 11 l61 5 -9 52 c-13 72 -52 171 -98
248 -79 133 -186 226 -344 299 -89 41 -106 59 -106 110 0 26 11 43 59 89 237
228 129 592 -194 652 -148 27 -324 -69 -391 -215 -72 -157 -41 -314 86 -436
98 -95 89 -144 -36 -194 -179 -72 -332 -213 -406 -374 -26 -58 -72 -221 -64
-229 3 -4 104 -10 569 -39 59 -4 107 -10 107 -14 0 -6 -203 -21 -560 -41
l-195 -10 -18 23 c-17 20 -18 33 -12 112 12 162 56 279 151 402 66 87 190 207
261 253 l52 34 -29 36 c-74 92 -116 239 -107 374 13 201 133 373 323 464 113
54 231 66 353 38z"/>
<path d="M4438 3763 c2 -175 5 -319 7 -321 1 -2 51 8 111 22 60 14 125 26 144
28 l35 3 1 263 c0 258 0 262 -20 262 -18 0 -173 33 -256 55 l-25 6 3 -318z"/>
<path d="M4458 2668 c2 -172 5 -314 7 -316 2 -2 28 3 58 12 29 9 89 22 133 29
l79 13 0 259 0 258 -115 23 c-63 14 -126 27 -140 30 l-25 6 3 -314z"/>
<path d="M4470 1590 l0 -312 33 5 c85 12 184 29 207 36 l25 6 1 259 c0 173 -3
259 -10 261 -6 1 -58 11 -116 22 -58 11 -113 24 -122 28 -17 7 -18 -12 -18
-305z"/>
</g>
</svg>
